<?xml version="1.0" encoding="UTF-8" standalone="no"?>
<!-- Created with Inkscape (http://www.inkscape.org/) -->

<svg
   width="512"
   height="512"
   viewBox="0 0 135.46666 135.46667"
   version="1.1"
   id="svg1"
   xmlns="http://www.w3.org/2000/svg"
   xmlns:svg="http://www.w3.org/2000/svg">
  <defs
     id="defs1">
    <rect
       x="117.02056"
       y="102.39299"
       width="472.9581"
       height="439.80228"
       id="rect1" />
  </defs>
  <g
     id="layer1">
    <circle
       style="fill:#1a1a1a;stroke:#000000;stroke-width:0.132292"
       id="path1"
       cx="67.73333"
       cy="67.73333"
       r="67.73333" />
    <path
       style="font-weight:bold;font-size:341.333px;font-family:'Comic Code';-inkscape-font-specification:'Comic Code Bold';white-space:pre;fill:#ffffff;stroke:#000000;stroke-width:0.5"
       d="m 376.77619,492.87754 q -9.89865,0 -17.06665,-7.16799 -6.82666,-6.82666 -6.82666,-16.72532 0,-9.55733 6.48533,-16.38399 6.82666,-6.82666 16.38398,-7.50932 25.25865,-1.36533 35.49864,-5.80266 10.23999,-4.43733 10.92265,-12.97066 0.68267,-3.41333 0.68267,-13.65332 l -0.68267,-30.37864 -0.68266,-19.11464 q 0,-15.35999 4.77866,-25.94131 5.11999,-10.58133 15.70132,-17.06665 -26.28264,-9.89866 -26.28264,-36.86397 0,-1.36533 2.04799,-23.89331 4.43733,-36.86396 4.43733,-51.88262 0,-12.28798 -3.07199,-16.72531 -3.072,-4.43733 -9.89866,-4.43733 -13.65332,0 -33.45064,4.09599 -8.19199,1.36534 -9.55732,1.36534 -9.89866,0 -17.06665,-6.82666 -6.82666,-7.168 -6.82666,-17.06665 0,-8.53333 5.46133,-15.01866 5.46133,-6.82666 13.65332,-8.53332 26.62397,-5.80266 47.78662,-5.80266 27.98931,0 44.37329,18.77331 16.38398,18.77332 16.38398,50.17595 0,18.77332 -5.11999,61.43995 l -1.36533,14.33598 q 0,1.70667 7.50932,3.75467 7.85066,2.04799 24.57598,2.38933 9.89866,0.34133 16.72532,7.50932 6.82666,6.82666 6.82666,16.38399 0,8.53332 -5.46133,15.35998 -5.46133,6.48533 -13.65332,8.19199 -12.97066,3.072 -19.45598,5.80267 -6.144,2.38933 -8.87466,7.16799 -2.38933,4.43733 -2.38933,13.31199 l 0.34133,17.40798 q 1.024,17.74932 1.024,32.0853 0,8.87466 -0.68267,19.11465 -3.41333,29.69597 -26.62397,44.37329 -22.86931,14.67732 -65.1946,16.72532 z"
       transform="matrix(0.26458333,0,0,0.26458333,-19.356941,-15.937893)"
       id="path2" />
    <path
       style="font-weight:bold;font-size:341.333px;font-family:'Comic Code';-inkscape-font-specification:'Comic Code Bold';white-space:pre;fill:#ffffff;stroke:#000000;stroke-width:0.5"
       d="m 245.70403,493.90154 q -18.09065,0 -32.42664,-8.19199 -13.99465,-7.85066 -22.18664,-22.52798 -7.85066,-14.33599 -7.85066,-32.42664 0,-10.23999 1.70666,-26.62397 2.048,-23.89331 2.048,-36.52263 0,-5.12 -1.70666,-7.50933 -1.36534,-2.38933 -7.50933,-4.77866 -5.80266,-2.38933 -20.82131,-6.82666 -7.85066,-2.048 -12.97066,-8.53333 -4.77866,-6.48533 -4.77866,-14.67732 0,-8.53332 5.46133,-15.01865 5.46133,-6.82666 13.65332,-8.53333 15.01865,-3.41333 22.18664,-6.14399 7.50933,-2.73066 9.55733,-5.46133 2.38933,-3.07199 2.38933,-7.50932 0,-7.168 -4.77866,-23.89331 -3.41333,-12.97066 -5.46133,-22.86932 -2.048,-10.23999 -2.048,-20.13864 0,-29.35464 22.52798,-48.12796 22.52798,-18.77331 63.48794,-26.62397 3.41333,-0.68267 5.11999,-0.68267 9.89866,0 16.72532,7.168 7.16799,6.82666 7.16799,16.72531 0,8.87466 -5.80266,15.35999 -5.46132,6.48533 -13.99465,8.19199 -23.89331,4.77866 -35.83997,11.94666 -11.60532,7.16799 -11.60532,16.04265 0,6.48532 1.024,12.62932 1.36533,6.14399 2.73067,11.94665 1.70666,5.46133 2.04799,7.168 3.072,10.23999 4.77867,18.43198 1.70666,8.19199 1.70666,16.72532 0,15.70131 -7.16799,26.62397 -6.82666,10.92266 -22.52798,17.74932 13.31199,6.14399 18.77331,16.04265 5.46133,9.55732 5.46133,24.57598 0,7.50932 -2.38933,41.64262 -1.36533,19.79732 -1.36533,21.50398 0,15.35999 14.67732,15.35999 11.94665,0 19.45598,-1.36534 7.85066,-1.36533 15.01865,-3.75466 7.50933,-2.048 10.58133,-2.048 9.89865,0 16.72531,6.82666 7.168,7.168 7.168,17.06665 0,8.192 -4.77867,14.33599 -4.77866,6.48533 -12.28798,8.53333 -24.91731,8.19199 -51.88262,8.19199 z"
       transform="matrix(0.26458333,0,0,0.26458333,-19.356941,-15.937893)"
       id="text1" />
  </g>
</svg>
